<svg xmlns="http://www.w3.org/2000/svg" xmlns:xlink="http://www.w3.org/1999/xlink" width="500" zoomAndPan="magnify" viewBox="0 0 375 374.999991" height="500" preserveAspectRatio="xMidYMid meet" version="1.0"><defs><g/><clipPath id="26cb03ec32"><path d="M 40.835938 40.519531 L 334.835938 40.519531 L 334.835938 334.519531 L 40.835938 334.519531 Z M 40.835938 40.519531 " clip-rule="nonzero"/></clipPath><clipPath id="03a0877012"><path d="M 6.304688 132.640625 L 368.554688 132.640625 L 368.554688 235.390625 L 6.304688 235.390625 Z M 6.304688 132.640625 " clip-rule="nonzero"/></clipPath><clipPath id="8da9cce6df"><path d="M 12.007812 139.683594 L 363.007812 139.683594 L 363.007812 228.183594 L 12.007812 228.183594 Z M 12.007812 139.683594 " clip-rule="nonzero"/></clipPath><clipPath id="90a90723c3"><path d="M 154.300781 244 L 217 244 L 217 303 L 154.300781 303 Z M 154.300781 244 " clip-rule="nonzero"/></clipPath><clipPath id="782210c2dd"><path d="M 154.300781 244.234375 L 216.789062 244.234375 L 216.789062 302.597656 L 154.300781 302.597656 Z M 154.300781 244.234375 " clip-rule="nonzero"/></clipPath><clipPath id="9264839829"><path d="M 164.042969 247.988281 L 171.347656 254.734375 L 169.9375 259.3125 L 164.988281 260.613281 L 157.683594 253.859375 L 154.382812 256.914062 L 162.773438 268.097656 L 172.671875 266.355469 L 207.410156 300.550781 C 212.730469 305.507812 219.90625 298.074219 214.929688 293.84375 L 177.8125 261.390625 L 180.074219 252.136719 L 167.59375 244.699219 Z M 209.730469 295.914062 C 210.679688 295.039062 212.210938 295.039062 213.160156 295.914062 C 214.105469 296.789062 214.105469 298.207031 213.160156 299.082031 C 212.210938 299.953125 210.679688 299.953125 209.730469 299.082031 C 208.785156 298.207031 208.785156 296.789062 209.730469 295.914062 Z M 209.730469 295.914062 " clip-rule="nonzero"/></clipPath><clipPath id="75f90f8bf9"><path d="M 154.300781 244 L 217 244 L 217 302 L 154.300781 302 Z M 154.300781 244 " clip-rule="nonzero"/></clipPath><clipPath id="005bb6ecab"><path d="M 155.351562 244 L 220.734375 244 L 220.734375 301.558594 L 155.351562 301.558594 Z M 155.351562 244 " clip-rule="nonzero"/></clipPath><clipPath id="087c2286c6"><path d="M 182.855469 245.277344 L 183.285156 245.363281 C 188.269531 243.828125 199.453125 249.863281 196.960938 255.242188 C 196.328125 256.085938 196.4375 257.585938 197.195312 258.53125 L 183.210938 271.464844 C 182.429688 270.738281 180.6875 270.753906 179.886719 271.464844 L 156.761719 291.984375 C 154.652344 293.855469 156.308594 295.445312 157.199219 296.285156 L 161.347656 300.117188 C 162.253906 300.953125 164.652344 302.078125 166.351562 300.410156 L 188.179688 279.144531 C 188.9375 278.40625 188.945312 276.816406 188.179688 276.085938 C 188.179688 276.085938 188.183594 276.074219 188.179688 276.074219 L 202.21875 263.101562 C 203.703125 264.335938 205.101562 264.441406 206.429688 264.105469 C 208.996094 263.457031 210.425781 265.777344 211.957031 267.472656 L 211.265625 268.101562 C 210.238281 269.0625 210.335938 270.675781 211.484375 271.738281 C 212.636719 272.800781 214.386719 272.890625 215.414062 271.941406 L 220.003906 267.707031 C 221.027344 266.746094 220.933594 265.132812 219.777344 264.074219 C 218.738281 263.109375 217.234375 262.984375 216.1875 263.671875 C 213.039062 260.410156 214.691406 259.921875 210.542969 255.675781 L 202.769531 248.332031 C 197.175781 243.257812 189.902344 243.261719 182.855469 245.277344 Z M 182.855469 245.277344 " clip-rule="nonzero"/></clipPath></defs><rect x="-37.5" width="450" fill="#ffffff" y="-37.499999" height="449.999989" fill-opacity="1"/><g clip-path="url(#26cb03ec32)"><path fill="#f57f5b" d="M 187.835938 40.519531 C 106.753906 40.519531 40.835938 106.492188 40.835938 187.519531 C 40.835938 268.605469 106.753906 334.519531 187.835938 334.519531 C 268.863281 334.519531 334.835938 268.605469 334.835938 187.519531 C 334.835938 106.492188 268.863281 40.519531 187.835938 40.519531 Z M 187.835938 323.054688 C 113.101562 323.054688 52.304688 262.253906 52.304688 187.519531 C 52.304688 112.785156 113.101562 51.984375 187.835938 51.984375 C 262.574219 51.984375 323.371094 112.785156 323.371094 187.519531 C 323.371094 262.253906 262.574219 323.054688 187.835938 323.054688 Z M 187.835938 323.054688 " fill-opacity="1" fill-rule="nonzero"/></g><path fill="#f57f5b" d="M 187.835938 59.628906 C 117.335938 59.628906 59.949219 117.019531 59.949219 187.519531 C 59.949219 258.019531 117.335938 315.410156 187.835938 315.410156 C 258.339844 315.410156 315.726562 258.019531 315.726562 187.519531 C 315.726562 117.019531 258.339844 59.628906 187.835938 59.628906 Z M 187.835938 59.628906 " fill-opacity="1" fill-rule="nonzero"/><g clip-path="url(#03a0877012)"><path fill="#fffaed" d="M 6.304688 132.640625 L 368.554688 132.640625 L 368.554688 235.390625 L 6.304688 235.390625 Z M 6.304688 132.640625 " fill-opacity="1" fill-rule="nonzero"/></g><g clip-path="url(#8da9cce6df)"><path fill="#f57f5b" d="M 12.007812 139.683594 L 363.007812 139.683594 L 363.007812 228.183594 L 12.007812 228.183594 Z M 12.007812 139.683594 " fill-opacity="1" fill-rule="nonzero"/></g><g fill="#ffffff" fill-opacity="1"><g transform="translate(62.657747, 184.152542)"><g><path d="M 10.328125 0 L 5.296875 0 C 4.765625 0 4.460938 -0.25 4.390625 -0.75 L 0.546875 -22.390625 C 0.472656 -22.890625 0.722656 -23.140625 1.296875 -23.140625 L 5.046875 -23.140625 C 5.597656 -23.140625 5.882812 -22.890625 5.90625 -22.390625 L 7.984375 -4.640625 L 8.25 -4.640625 L 11.703125 -22.5 C 11.773438 -22.925781 12.023438 -23.140625 12.453125 -23.140625 L 16.484375 -23.140625 C 16.941406 -23.140625 17.207031 -22.9375 17.28125 -22.53125 L 20.8125 -4.640625 L 21.09375 -4.640625 L 23.140625 -22.359375 C 23.171875 -22.878906 23.460938 -23.140625 24.015625 -23.140625 L 27.75 -23.140625 C 28.332031 -23.140625 28.585938 -22.878906 28.515625 -22.359375 L 24.625 -0.75 C 24.550781 -0.25 24.273438 0 23.796875 0 L 18.71875 0 C 18.21875 0 17.929688 -0.25 17.859375 -0.75 L 14.609375 -17.640625 L 14.46875 -17.640625 L 11.203125 -0.75 C 11.097656 -0.25 10.804688 0 10.328125 0 Z M 10.328125 0 "/></g></g></g><g fill="#ffffff" fill-opacity="1"><g transform="translate(91.709808, 184.152542)"><g><path d="M 10.84375 0 L 7.78125 0 C 7.269531 0 7.015625 -0.25 7.015625 -0.75 L 7.015625 -8.453125 L 0.4375 -22.359375 C 0.332031 -22.578125 0.332031 -22.757812 0.4375 -22.90625 C 0.550781 -23.0625 0.71875 -23.140625 0.9375 -23.140625 L 4.75 -23.140625 C 5.132812 -23.140625 5.421875 -22.890625 5.609375 -22.390625 L 9.21875 -13.640625 L 9.46875 -13.640625 L 13 -22.390625 C 13.164062 -22.890625 13.453125 -23.140625 13.859375 -23.140625 L 17.671875 -23.140625 C 17.910156 -23.140625 18.082031 -23.066406 18.1875 -22.921875 C 18.300781 -22.785156 18.300781 -22.597656 18.1875 -22.359375 L 11.59375 -8.453125 L 11.59375 -0.75 C 11.59375 -0.25 11.34375 0 10.84375 0 Z M 10.84375 0 "/></g></g></g><g fill="#ffffff" fill-opacity="1"><g transform="translate(110.321848, 184.152542)"><g><path d="M 6.15625 0 L 3.09375 0 C 2.59375 0 2.34375 -0.25 2.34375 -0.75 L 2.34375 -22.390625 C 2.34375 -22.890625 2.59375 -23.140625 3.09375 -23.140625 L 11.875 -23.140625 C 13.75 -23.140625 15.203125 -22.628906 16.234375 -21.609375 C 17.265625 -20.597656 17.78125 -19.15625 17.78125 -17.28125 L 17.78125 -13.828125 C 17.78125 -11.953125 17.265625 -10.503906 16.234375 -9.484375 C 15.203125 -8.460938 13.75 -7.953125 11.875 -7.953125 L 7.34375 -7.953125 C 7.050781 -7.953125 6.90625 -7.820312 6.90625 -7.5625 L 6.90625 -0.75 C 6.90625 -0.25 6.65625 0 6.15625 0 Z M 7.3125 -11.953125 L 11.125 -11.953125 C 11.894531 -11.953125 12.4375 -12.113281 12.75 -12.4375 C 13.0625 -12.757812 13.21875 -13.296875 13.21875 -14.046875 L 13.21875 -17.0625 C 13.21875 -17.832031 13.0625 -18.378906 12.75 -18.703125 C 12.4375 -19.023438 11.894531 -19.1875 11.125 -19.1875 L 7.3125 -19.1875 C 7.039062 -19.1875 6.90625 -19.054688 6.90625 -18.796875 L 6.90625 -12.34375 C 6.90625 -12.082031 7.039062 -11.953125 7.3125 -11.953125 Z M 7.3125 -11.953125 "/></g></g></g><g fill="#ffffff" fill-opacity="1"><g transform="translate(129.401883, 184.152542)"><g><path d="M 8.640625 -3.953125 L 11.203125 -3.953125 C 11.960938 -3.953125 12.503906 -4.113281 12.828125 -4.4375 C 13.148438 -4.769531 13.3125 -5.316406 13.3125 -6.078125 L 13.3125 -17.0625 C 13.3125 -17.832031 13.148438 -18.378906 12.828125 -18.703125 C 12.503906 -19.023438 11.960938 -19.1875 11.203125 -19.1875 L 8.640625 -19.1875 C 7.867188 -19.1875 7.328125 -19.023438 7.015625 -18.703125 C 6.703125 -18.378906 6.546875 -17.832031 6.546875 -17.0625 L 6.546875 -6.078125 C 6.546875 -5.316406 6.703125 -4.769531 7.015625 -4.4375 C 7.328125 -4.113281 7.867188 -3.953125 8.640625 -3.953125 Z M 11.953125 0 L 7.921875 0 C 6.023438 0 4.5625 -0.503906 3.53125 -1.515625 C 2.5 -2.523438 1.984375 -3.976562 1.984375 -5.875 L 1.984375 -17.28125 C 1.984375 -19.175781 2.5 -20.625 3.53125 -21.625 C 4.5625 -22.632812 6.023438 -23.140625 7.921875 -23.140625 L 11.953125 -23.140625 C 13.847656 -23.140625 15.3125 -22.632812 16.34375 -21.625 C 17.375 -20.625 17.890625 -19.175781 17.890625 -17.28125 L 17.890625 -5.875 C 17.890625 -3.976562 17.375 -2.523438 16.34375 -1.515625 C 15.3125 -0.503906 13.847656 0 11.953125 0 Z M 11.953125 0 "/></g></g></g><g fill="#ffffff" fill-opacity="1"><g transform="translate(149.273917, 184.152542)"><g><path d="M 7.953125 -26.25 L 7.953125 -29.625 C 7.953125 -30.101562 8.191406 -30.34375 8.671875 -30.34375 L 11.8125 -30.34375 C 12.289062 -30.34375 12.53125 -30.113281 12.53125 -29.65625 L 12.53125 -26.25 C 12.53125 -25.738281 12.289062 -25.484375 11.8125 -25.484375 L 8.671875 -25.484375 C 8.191406 -25.484375 7.953125 -25.738281 7.953125 -26.25 Z M 1.734375 -0.75 L 1.734375 -2.921875 C 1.734375 -3.710938 1.890625 -4.300781 2.203125 -4.6875 L 11.734375 -18.75 L 11.734375 -18.90625 L 3.125 -18.90625 C 2.625 -18.90625 2.375 -19.15625 2.375 -19.65625 L 2.375 -22.390625 C 2.375 -22.890625 2.625 -23.140625 3.125 -23.140625 L 15.90625 -23.140625 C 16.382812 -23.140625 16.625 -22.890625 16.625 -22.390625 L 16.625 -19.296875 C 16.625 -18.578125 16.445312 -17.953125 16.09375 -17.421875 L 7.125 -4.390625 L 7.125 -4.25 L 16.265625 -4.25 C 16.742188 -4.25 16.984375 -4.019531 16.984375 -3.5625 L 16.984375 -0.828125 C 16.984375 -0.273438 16.742188 0 16.265625 0 L 2.484375 0 C 1.984375 0 1.734375 -0.25 1.734375 -0.75 Z M 1.734375 -0.75 "/></g></g></g><g fill="#ffffff" fill-opacity="1"><g transform="translate(168.029959, 184.152542)"><g><path d="M 10.84375 0 L 7.78125 0 C 7.269531 0 7.015625 -0.25 7.015625 -0.75 L 7.015625 -8.453125 L 0.4375 -22.359375 C 0.332031 -22.578125 0.332031 -22.757812 0.4375 -22.90625 C 0.550781 -23.0625 0.71875 -23.140625 0.9375 -23.140625 L 4.75 -23.140625 C 5.132812 -23.140625 5.421875 -22.890625 5.609375 -22.390625 L 9.21875 -13.640625 L 9.46875 -13.640625 L 13 -22.390625 C 13.164062 -22.890625 13.453125 -23.140625 13.859375 -23.140625 L 17.671875 -23.140625 C 17.910156 -23.140625 18.082031 -23.066406 18.1875 -22.921875 C 18.300781 -22.785156 18.300781 -22.597656 18.1875 -22.359375 L 11.59375 -8.453125 L 11.59375 -0.75 C 11.59375 -0.25 11.34375 0 10.84375 0 Z M 10.84375 0 "/></g></g></g><g fill="#ffffff" fill-opacity="1"><g transform="translate(186.641999, 184.152542)"><g><path d="M 11.84375 0 L 7.921875 0 C 6.023438 0 4.5625 -0.503906 3.53125 -1.515625 C 2.5 -2.523438 1.984375 -3.976562 1.984375 -5.875 L 1.984375 -17.28125 C 1.984375 -19.175781 2.5 -20.625 3.53125 -21.625 C 4.5625 -22.632812 6.023438 -23.140625 7.921875 -23.140625 L 11.84375 -23.140625 C 13.71875 -23.140625 15.175781 -22.628906 16.21875 -21.609375 C 17.257812 -20.597656 17.78125 -19.15625 17.78125 -17.28125 L 17.78125 -15.59375 C 17.78125 -15.0625 17.515625 -14.796875 16.984375 -14.796875 L 13.96875 -14.796875 C 13.46875 -14.796875 13.21875 -15.0625 13.21875 -15.59375 L 13.21875 -17.0625 C 13.21875 -17.832031 13.050781 -18.378906 12.71875 -18.703125 C 12.394531 -19.023438 11.851562 -19.1875 11.09375 -19.1875 L 8.640625 -19.1875 C 7.898438 -19.1875 7.363281 -19.023438 7.03125 -18.703125 C 6.707031 -18.378906 6.546875 -17.832031 6.546875 -17.0625 L 6.546875 -6.078125 C 6.546875 -5.316406 6.707031 -4.769531 7.03125 -4.4375 C 7.363281 -4.113281 7.898438 -3.953125 8.640625 -3.953125 L 11.09375 -3.953125 C 11.851562 -3.953125 12.394531 -4.113281 12.71875 -4.4375 C 13.050781 -4.769531 13.21875 -5.316406 13.21875 -6.078125 L 13.21875 -7.5625 C 13.21875 -8.09375 13.46875 -8.359375 13.96875 -8.359375 L 16.984375 -8.359375 C 17.515625 -8.359375 17.78125 -8.09375 17.78125 -7.5625 L 17.78125 -5.875 C 17.78125 -4 17.257812 -2.550781 16.21875 -1.53125 C 15.175781 -0.507812 13.71875 0 11.84375 0 Z M 11.84375 0 "/></g></g></g><g fill="#ffffff" fill-opacity="1"><g transform="translate(206.010036, 184.152542)"><g><path d="M 1.734375 -0.75 L 1.734375 -2.921875 C 1.734375 -3.710938 1.890625 -4.300781 2.203125 -4.6875 L 11.734375 -18.75 L 11.734375 -18.90625 L 3.125 -18.90625 C 2.625 -18.90625 2.375 -19.15625 2.375 -19.65625 L 2.375 -22.390625 C 2.375 -22.890625 2.625 -23.140625 3.125 -23.140625 L 15.90625 -23.140625 C 16.382812 -23.140625 16.625 -22.890625 16.625 -22.390625 L 16.625 -19.296875 C 16.625 -18.578125 16.445312 -17.953125 16.09375 -17.421875 L 7.125 -4.390625 L 7.125 -4.25 L 16.265625 -4.25 C 16.742188 -4.25 16.984375 -4.019531 16.984375 -3.5625 L 16.984375 -0.828125 C 16.984375 -0.273438 16.742188 0 16.265625 0 L 2.484375 0 C 1.984375 0 1.734375 -0.25 1.734375 -0.75 Z M 1.734375 -0.75 "/></g></g></g><g fill="#ffffff" fill-opacity="1"><g transform="translate(224.766077, 184.152542)"><g><path d="M 4.75 0 L 1.296875 0 C 0.859375 0 0.710938 -0.25 0.859375 -0.75 L 6.546875 -22.390625 C 6.710938 -22.890625 7.070312 -23.140625 7.625 -23.140625 L 12.421875 -23.140625 C 13.015625 -23.140625 13.375 -22.890625 13.5 -22.390625 L 19.1875 -0.75 C 19.332031 -0.25 19.1875 0 18.75 0 L 15.296875 0 C 15.035156 0 14.851562 -0.0507812 14.75 -0.15625 C 14.65625 -0.269531 14.585938 -0.46875 14.546875 -0.75 L 13.53125 -4.71875 L 6.515625 -4.71875 L 5.515625 -0.75 C 5.460938 -0.46875 5.378906 -0.269531 5.265625 -0.15625 C 5.160156 -0.0507812 4.988281 0 4.75 0 Z M 9.96875 -18.796875 L 7.375 -8.390625 L 12.703125 -8.390625 L 10.109375 -18.796875 Z M 9.96875 -18.796875 "/></g></g></g><g fill="#ffffff" fill-opacity="1"><g transform="translate(244.818116, 184.152542)"><g><path d="M 14.9375 0 L 3.09375 0 C 2.59375 0 2.34375 -0.25 2.34375 -0.75 L 2.34375 -22.390625 C 2.34375 -22.890625 2.59375 -23.140625 3.09375 -23.140625 L 6.15625 -23.140625 C 6.65625 -23.140625 6.90625 -22.890625 6.90625 -22.390625 L 6.90625 -4.390625 C 6.90625 -4.128906 7.050781 -4 7.34375 -4 L 14.9375 -4 C 15.414062 -4 15.65625 -3.734375 15.65625 -3.203125 L 15.65625 -0.75 C 15.65625 -0.25 15.414062 0 14.9375 0 Z M 14.9375 0 "/></g></g></g><g fill="#ffffff" fill-opacity="1"><g transform="translate(260.982151, 184.152542)"><g><path d="M 6.078125 0 L 3.09375 0 C 2.59375 0 2.34375 -0.25 2.34375 -0.75 L 2.34375 -22.390625 C 2.34375 -22.890625 2.59375 -23.140625 3.09375 -23.140625 L 5.796875 -23.140625 C 6.296875 -23.140625 6.628906 -22.972656 6.796875 -22.640625 L 14.078125 -9 L 14.21875 -9 L 14.21875 -22.390625 C 14.21875 -22.890625 14.46875 -23.140625 14.96875 -23.140625 L 17.96875 -23.140625 C 18.46875 -23.140625 18.71875 -22.890625 18.71875 -22.390625 L 18.71875 -0.75 C 18.71875 -0.25 18.46875 0 17.96875 0 L 15.34375 0 C 14.8125 0 14.425781 -0.238281 14.1875 -0.71875 L 6.984375 -14.109375 L 6.84375 -14.109375 L 6.84375 -0.75 C 6.84375 -0.25 6.585938 0 6.078125 0 Z M 6.078125 0 "/></g></g></g><g fill="#ffffff" fill-opacity="1"><g transform="translate(282.042208, 184.152542)"><g><path d="M 7.09375 -22.390625 L 7.09375 -0.75 C 7.09375 -0.25 6.84375 0 6.34375 0 L 3.28125 0 C 2.769531 0 2.515625 -0.25 2.515625 -0.75 L 2.515625 -22.390625 C 2.515625 -22.890625 2.769531 -23.140625 3.28125 -23.140625 L 6.34375 -23.140625 C 6.84375 -23.140625 7.09375 -22.890625 7.09375 -22.390625 Z M 7.09375 -22.390625 "/></g></g></g><g fill="#ffffff" fill-opacity="1"><g transform="translate(291.654237, 184.152542)"><g><path d="M 4.75 0 L 1.296875 0 C 0.859375 0 0.710938 -0.25 0.859375 -0.75 L 6.546875 -22.390625 C 6.710938 -22.890625 7.070312 -23.140625 7.625 -23.140625 L 12.421875 -23.140625 C 13.015625 -23.140625 13.375 -22.890625 13.5 -22.390625 L 19.1875 -0.75 C 19.332031 -0.25 19.1875 0 18.75 0 L 15.296875 0 C 15.035156 0 14.851562 -0.0507812 14.75 -0.15625 C 14.65625 -0.269531 14.585938 -0.46875 14.546875 -0.75 L 13.53125 -4.71875 L 6.515625 -4.71875 L 5.515625 -0.75 C 5.460938 -0.46875 5.378906 -0.269531 5.265625 -0.15625 C 5.160156 -0.0507812 4.988281 0 4.75 0 Z M 9.96875 -18.796875 L 7.375 -8.390625 L 12.703125 -8.390625 L 10.109375 -18.796875 Z M 9.96875 -18.796875 "/></g></g></g><g fill="#ffffff" fill-opacity="1"><g transform="translate(101.883836, 208.798448)"><g><path d="M 2.84375 0.09375 C 2.351562 0.09375 1.875 0.0234375 1.40625 -0.109375 C 0.945312 -0.253906 0.582031 -0.441406 0.3125 -0.671875 L 0.734375 -1.59375 C 0.992188 -1.382812 1.3125 -1.210938 1.6875 -1.078125 C 2.070312 -0.953125 2.457031 -0.890625 2.84375 -0.890625 C 3.320312 -0.890625 3.675781 -0.96875 3.90625 -1.125 C 4.144531 -1.28125 4.265625 -1.484375 4.265625 -1.734375 C 4.265625 -1.910156 4.195312 -2.054688 4.0625 -2.171875 C 3.925781 -2.296875 3.757812 -2.390625 3.5625 -2.453125 C 3.363281 -2.523438 3.09375 -2.601562 2.75 -2.6875 C 2.257812 -2.800781 1.863281 -2.914062 1.5625 -3.03125 C 1.257812 -3.144531 1 -3.328125 0.78125 -3.578125 C 0.5625 -3.828125 0.453125 -4.160156 0.453125 -4.578125 C 0.453125 -4.929688 0.546875 -5.253906 0.734375 -5.546875 C 0.929688 -5.835938 1.222656 -6.066406 1.609375 -6.234375 C 1.992188 -6.398438 2.46875 -6.484375 3.03125 -6.484375 C 3.425781 -6.484375 3.8125 -6.4375 4.1875 -6.34375 C 4.5625 -6.25 4.890625 -6.109375 5.171875 -5.921875 L 4.796875 -5 C 4.515625 -5.164062 4.21875 -5.289062 3.90625 -5.375 C 3.601562 -5.457031 3.3125 -5.5 3.03125 -5.5 C 2.5625 -5.5 2.210938 -5.421875 1.984375 -5.265625 C 1.753906 -5.109375 1.640625 -4.898438 1.640625 -4.640625 C 1.640625 -4.453125 1.703125 -4.300781 1.828125 -4.1875 C 1.960938 -4.070312 2.128906 -3.976562 2.328125 -3.90625 C 2.523438 -3.84375 2.800781 -3.769531 3.15625 -3.6875 C 3.625 -3.570312 4.007812 -3.453125 4.3125 -3.328125 C 4.625 -3.210938 4.882812 -3.035156 5.09375 -2.796875 C 5.3125 -2.554688 5.421875 -2.226562 5.421875 -1.8125 C 5.421875 -1.457031 5.328125 -1.132812 5.140625 -0.84375 C 4.953125 -0.5625 4.660156 -0.332031 4.265625 -0.15625 C 3.878906 0.0078125 3.40625 0.09375 2.84375 0.09375 Z M 2.84375 0.09375 "/></g></g></g><g fill="#ffffff" fill-opacity="1"><g transform="translate(110.093995, 208.798448)"><g><path d="M 3.484375 -6.40625 C 4.046875 -6.40625 4.53125 -6.3125 4.9375 -6.125 C 5.351562 -5.9375 5.671875 -5.671875 5.890625 -5.328125 C 6.109375 -4.992188 6.21875 -4.59375 6.21875 -4.125 C 6.21875 -3.65625 6.109375 -3.25 5.890625 -2.90625 C 5.671875 -2.5625 5.351562 -2.296875 4.9375 -2.109375 C 4.53125 -1.929688 4.046875 -1.84375 3.484375 -1.84375 L 2.046875 -1.84375 L 2.046875 0 L 0.859375 0 L 0.859375 -6.40625 Z M 3.4375 -2.859375 C 3.957031 -2.859375 4.347656 -2.96875 4.609375 -3.1875 C 4.878906 -3.40625 5.015625 -3.71875 5.015625 -4.125 C 5.015625 -4.53125 4.878906 -4.84375 4.609375 -5.0625 C 4.347656 -5.28125 3.957031 -5.390625 3.4375 -5.390625 L 2.046875 -5.390625 L 2.046875 -2.859375 Z M 3.4375 -2.859375 "/></g></g></g><g fill="#ffffff" fill-opacity="1"><g transform="translate(119.189664, 208.798448)"><g><path d="M 5.046875 0 L 3.734375 -1.875 C 3.679688 -1.863281 3.597656 -1.859375 3.484375 -1.859375 L 2.046875 -1.859375 L 2.046875 0 L 0.859375 0 L 0.859375 -6.40625 L 3.484375 -6.40625 C 4.046875 -6.40625 4.53125 -6.3125 4.9375 -6.125 C 5.351562 -5.9375 5.671875 -5.671875 5.890625 -5.328125 C 6.109375 -4.992188 6.21875 -4.59375 6.21875 -4.125 C 6.21875 -3.644531 6.097656 -3.226562 5.859375 -2.875 C 5.628906 -2.53125 5.296875 -2.273438 4.859375 -2.109375 L 6.328125 0 Z M 5.015625 -4.125 C 5.015625 -4.53125 4.878906 -4.84375 4.609375 -5.0625 C 4.347656 -5.28125 3.957031 -5.390625 3.4375 -5.390625 L 2.046875 -5.390625 L 2.046875 -2.84375 L 3.4375 -2.84375 C 3.957031 -2.84375 4.347656 -2.953125 4.609375 -3.171875 C 4.878906 -3.398438 5.015625 -3.71875 5.015625 -4.125 Z M 5.015625 -4.125 "/></g></g></g><g fill="#ffffff" fill-opacity="1"><g transform="translate(128.330982, 208.798448)"><g><path d="M 5.828125 -1 L 5.828125 0 L 0.375 0 L 0.375 -0.796875 L 4.140625 -5.390625 L 0.4375 -5.390625 L 0.4375 -6.40625 L 5.71875 -6.40625 L 5.71875 -5.609375 L 1.953125 -1 Z M 5.828125 -1 "/></g></g></g><g fill="#ffffff" fill-opacity="1"><g transform="translate(136.851528, 208.798448)"><g><path d="M 5.65625 -1 L 5.65625 0 L 0.859375 0 L 0.859375 -6.40625 L 5.53125 -6.40625 L 5.53125 -5.40625 L 2.046875 -5.40625 L 2.046875 -3.734375 L 5.140625 -3.734375 L 5.140625 -2.765625 L 2.046875 -2.765625 L 2.046875 -1 Z M 5 2.078125 C 4.625 2.078125 4.332031 1.988281 4.125 1.8125 C 3.914062 1.632812 3.8125 1.398438 3.8125 1.109375 C 3.8125 0.828125 3.921875 0.554688 4.140625 0.296875 C 4.359375 0.046875 4.695312 -0.164062 5.15625 -0.34375 L 5.65625 0 C 5.269531 0.164062 4.992188 0.328125 4.828125 0.484375 C 4.660156 0.648438 4.578125 0.828125 4.578125 1.015625 C 4.578125 1.148438 4.625 1.257812 4.71875 1.34375 C 4.820312 1.425781 4.957031 1.46875 5.125 1.46875 C 5.332031 1.46875 5.515625 1.414062 5.671875 1.3125 L 5.875 1.875 C 5.625 2.007812 5.332031 2.078125 5 2.078125 Z M 5 2.078125 "/></g></g></g><g fill="#ffffff" fill-opacity="1"><g transform="translate(145.435978, 208.798448)"><g><path d="M 2.15625 -5.390625 L 0.03125 -5.390625 L 0.03125 -6.40625 L 5.46875 -6.40625 L 5.46875 -5.390625 L 3.34375 -5.390625 L 3.34375 0 L 2.15625 0 Z M 2.15625 -5.390625 "/></g></g></g><g fill="#ffffff" fill-opacity="1"><g transform="translate(153.399652, 208.798448)"><g><path d="M 3.609375 0.09375 C 2.722656 0.09375 2.03125 -0.15625 1.53125 -0.65625 C 1.039062 -1.15625 0.796875 -1.863281 0.796875 -2.78125 L 0.796875 -6.40625 L 2 -6.40625 L 2 -2.828125 C 2 -1.578125 2.539062 -0.953125 3.625 -0.953125 C 4.695312 -0.953125 5.234375 -1.578125 5.234375 -2.828125 L 5.234375 -6.40625 L 6.40625 -6.40625 L 6.40625 -2.78125 C 6.40625 -1.863281 6.160156 -1.15625 5.671875 -0.65625 C 5.179688 -0.15625 4.492188 0.09375 3.609375 0.09375 Z M 3.609375 0.09375 "/></g></g></g><g fill="#ffffff" fill-opacity="1"><g transform="translate(163.070453, 208.798448)"><g/></g></g><g fill="#ffffff" fill-opacity="1"><g transform="translate(168.05808, 208.798448)"><g><path d="M 5.390625 -3.328125 C 5.742188 -3.210938 6.023438 -3.019531 6.234375 -2.75 C 6.441406 -2.476562 6.546875 -2.140625 6.546875 -1.734375 C 6.546875 -1.179688 6.332031 -0.753906 5.90625 -0.453125 C 5.476562 -0.148438 4.859375 0 4.046875 0 L 0.859375 0 L 0.859375 -6.40625 L 3.859375 -6.40625 C 4.609375 -6.40625 5.1875 -6.253906 5.59375 -5.953125 C 6.007812 -5.660156 6.21875 -5.253906 6.21875 -4.734375 C 6.21875 -4.421875 6.144531 -4.140625 6 -3.890625 C 5.851562 -3.648438 5.648438 -3.460938 5.390625 -3.328125 Z M 2.046875 -5.46875 L 2.046875 -3.703125 L 3.734375 -3.703125 C 4.140625 -3.703125 4.453125 -3.773438 4.671875 -3.921875 C 4.898438 -4.078125 5.015625 -4.296875 5.015625 -4.578125 C 5.015625 -4.867188 4.898438 -5.085938 4.671875 -5.234375 C 4.453125 -5.390625 4.140625 -5.46875 3.734375 -5.46875 Z M 3.96875 -0.9375 C 4.882812 -0.9375 5.34375 -1.242188 5.34375 -1.859375 C 5.34375 -2.472656 4.882812 -2.78125 3.96875 -2.78125 L 2.046875 -2.78125 L 2.046875 -0.9375 Z M 3.96875 -0.9375 "/></g></g></g><g fill="#ffffff" fill-opacity="1"><g transform="translate(177.473265, 208.798448)"><g><path d="M 3.609375 0.09375 C 2.722656 0.09375 2.03125 -0.15625 1.53125 -0.65625 C 1.039062 -1.15625 0.796875 -1.863281 0.796875 -2.78125 L 0.796875 -6.40625 L 2 -6.40625 L 2 -2.828125 C 2 -1.578125 2.539062 -0.953125 3.625 -0.953125 C 4.695312 -0.953125 5.234375 -1.578125 5.234375 -2.828125 L 5.234375 -6.40625 L 6.40625 -6.40625 L 6.40625 -2.78125 C 6.40625 -1.863281 6.160156 -1.15625 5.671875 -0.65625 C 5.179688 -0.15625 4.492188 0.09375 3.609375 0.09375 Z M 3.609375 0.09375 "/></g></g></g><g fill="#ffffff" fill-opacity="1"><g transform="translate(187.144065, 208.798448)"><g><path d="M 0.859375 -6.40625 L 3.65625 -6.40625 C 4.34375 -6.40625 4.945312 -6.269531 5.46875 -6 C 6 -5.738281 6.410156 -5.363281 6.703125 -4.875 C 6.992188 -4.394531 7.140625 -3.835938 7.140625 -3.203125 C 7.140625 -2.566406 6.992188 -2.003906 6.703125 -1.515625 C 6.410156 -1.035156 6 -0.660156 5.46875 -0.390625 C 4.945312 -0.128906 4.34375 0 3.65625 0 L 0.859375 0 Z M 3.59375 -1 C 4.070312 -1 4.488281 -1.085938 4.84375 -1.265625 C 5.195312 -1.453125 5.46875 -1.710938 5.65625 -2.046875 C 5.851562 -2.378906 5.953125 -2.765625 5.953125 -3.203125 C 5.953125 -3.640625 5.851562 -4.023438 5.65625 -4.359375 C 5.46875 -4.691406 5.195312 -4.945312 4.84375 -5.125 C 4.488281 -5.300781 4.070312 -5.390625 3.59375 -5.390625 L 2.046875 -5.390625 L 2.046875 -1 Z M 3.59375 -1 "/></g></g></g><g fill="#ffffff" fill-opacity="1"><g transform="translate(197.152638, 208.798448)"><g><path d="M 3.84375 0.09375 C 3.195312 0.09375 2.609375 -0.046875 2.078125 -0.328125 C 1.554688 -0.617188 1.144531 -1.015625 0.84375 -1.515625 C 0.550781 -2.015625 0.40625 -2.578125 0.40625 -3.203125 C 0.40625 -3.816406 0.550781 -4.375 0.84375 -4.875 C 1.144531 -5.382812 1.554688 -5.78125 2.078125 -6.0625 C 2.609375 -6.34375 3.195312 -6.484375 3.84375 -6.484375 C 4.5 -6.484375 5.085938 -6.34375 5.609375 -6.0625 C 6.140625 -5.78125 6.550781 -5.390625 6.84375 -4.890625 C 7.144531 -4.390625 7.296875 -3.828125 7.296875 -3.203125 C 7.296875 -2.566406 7.144531 -2 6.84375 -1.5 C 6.550781 -1.007812 6.140625 -0.617188 5.609375 -0.328125 C 5.085938 -0.046875 4.5 0.09375 3.84375 0.09375 Z M 3.84375 -0.953125 C 4.269531 -0.953125 4.65625 -1.046875 5 -1.234375 C 5.34375 -1.429688 5.609375 -1.703125 5.796875 -2.046875 C 5.992188 -2.390625 6.09375 -2.773438 6.09375 -3.203125 C 6.09375 -3.628906 5.992188 -4.015625 5.796875 -4.359375 C 5.609375 -4.703125 5.34375 -4.96875 5 -5.15625 C 4.65625 -5.351562 4.269531 -5.453125 3.84375 -5.453125 C 3.414062 -5.453125 3.03125 -5.351562 2.6875 -5.15625 C 2.351562 -4.96875 2.085938 -4.703125 1.890625 -4.359375 C 1.691406 -4.015625 1.59375 -3.628906 1.59375 -3.203125 C 1.59375 -2.773438 1.691406 -2.390625 1.890625 -2.046875 C 2.085938 -1.703125 2.351562 -1.429688 2.6875 -1.234375 C 3.03125 -1.046875 3.414062 -0.953125 3.84375 -0.953125 Z M 3.84375 -0.953125 "/></g></g></g><g fill="#ffffff" fill-opacity="1"><g transform="translate(207.307272, 208.798448)"><g><path d="M 10.203125 -6.40625 L 8.09375 0 L 6.828125 0 L 5.25 -4.734375 L 3.640625 0 L 2.375 0 L 0.25 -6.40625 L 1.484375 -6.40625 L 3.078125 -1.53125 L 4.71875 -6.40625 L 5.828125 -6.40625 L 7.4375 -1.515625 L 9.078125 -6.40625 Z M 10.203125 -6.40625 "/></g></g></g><g fill="#ffffff" fill-opacity="1"><g transform="translate(220.218862, 208.798448)"><g><path d="M 0.859375 -6.40625 L 2.046875 -6.40625 L 2.046875 -1 L 5.390625 -1 L 5.390625 0 L 0.859375 0 Z M 0.859375 -6.40625 "/></g></g></g><g fill="#ffffff" fill-opacity="1"><g transform="translate(228.155156, 208.798448)"><g><path d="M 5.015625 -1.484375 L 1.8125 -1.484375 L 1.171875 0 L -0.046875 0 L 2.828125 -6.40625 L 4 -6.40625 L 6.890625 0 L 5.65625 0 Z M 4.609375 -2.40625 L 3.40625 -5.203125 L 2.21875 -2.40625 Z M 4.609375 -2.40625 "/></g></g></g><g fill="#ffffff" fill-opacity="1"><g transform="translate(237.460804, 208.798448)"><g><path d="M 6.546875 -6.40625 L 6.546875 0 L 5.5625 0 L 2.03125 -4.328125 L 2.03125 0 L 0.859375 0 L 0.859375 -6.40625 L 1.84375 -6.40625 L 5.359375 -2.0625 L 5.359375 -6.40625 Z M 6.546875 -6.40625 "/></g></g></g><g fill="#ffffff" fill-opacity="1"><g transform="translate(247.323322, 208.798448)"><g><path d="M 5.65625 -1 L 5.65625 0 L 0.859375 0 L 0.859375 -6.40625 L 5.53125 -6.40625 L 5.53125 -5.40625 L 2.046875 -5.40625 L 2.046875 -3.734375 L 5.140625 -3.734375 L 5.140625 -2.765625 L 2.046875 -2.765625 L 2.046875 -1 Z M 5.65625 -1 "/></g></g></g><g fill="#ffffff" fill-opacity="1"><g transform="translate(255.907775, 208.798448)"><g><path d="M 5.234375 -3.265625 L 6.359375 -3.265625 L 6.359375 -0.71875 C 6.023438 -0.457031 5.640625 -0.253906 5.203125 -0.109375 C 4.765625 0.0234375 4.3125 0.09375 3.84375 0.09375 C 3.195312 0.09375 2.609375 -0.046875 2.078125 -0.328125 C 1.554688 -0.617188 1.144531 -1.007812 0.84375 -1.5 C 0.550781 -2 0.40625 -2.566406 0.40625 -3.203125 C 0.40625 -3.828125 0.550781 -4.390625 0.84375 -4.890625 C 1.144531 -5.390625 1.554688 -5.78125 2.078125 -6.0625 C 2.609375 -6.34375 3.203125 -6.484375 3.859375 -6.484375 C 4.398438 -6.484375 4.890625 -6.394531 5.328125 -6.21875 C 5.765625 -6.039062 6.132812 -5.785156 6.4375 -5.453125 L 5.6875 -4.71875 C 5.195312 -5.207031 4.609375 -5.453125 3.921875 -5.453125 C 3.472656 -5.453125 3.070312 -5.351562 2.71875 -5.15625 C 2.363281 -4.96875 2.085938 -4.703125 1.890625 -4.359375 C 1.691406 -4.023438 1.59375 -3.640625 1.59375 -3.203125 C 1.59375 -2.773438 1.691406 -2.390625 1.890625 -2.046875 C 2.085938 -1.703125 2.363281 -1.429688 2.71875 -1.234375 C 3.070312 -1.046875 3.46875 -0.953125 3.90625 -0.953125 C 4.40625 -0.953125 4.847656 -1.0625 5.234375 -1.28125 Z M 5.234375 -3.265625 "/></g></g></g><g fill="#ffffff" fill-opacity="1"><g transform="translate(265.423388, 208.798448)"><g><path d="M 3.84375 0.09375 C 3.195312 0.09375 2.609375 -0.046875 2.078125 -0.328125 C 1.554688 -0.617188 1.144531 -1.015625 0.84375 -1.515625 C 0.550781 -2.015625 0.40625 -2.578125 0.40625 -3.203125 C 0.40625 -3.816406 0.550781 -4.375 0.84375 -4.875 C 1.144531 -5.382812 1.554688 -5.78125 2.078125 -6.0625 C 2.609375 -6.34375 3.195312 -6.484375 3.84375 -6.484375 C 4.5 -6.484375 5.085938 -6.34375 5.609375 -6.0625 C 6.140625 -5.78125 6.550781 -5.390625 6.84375 -4.890625 C 7.144531 -4.390625 7.296875 -3.828125 7.296875 -3.203125 C 7.296875 -2.566406 7.144531 -2 6.84375 -1.5 C 6.550781 -1.007812 6.140625 -0.617188 5.609375 -0.328125 C 5.085938 -0.046875 4.5 0.09375 3.84375 0.09375 Z M 3.84375 -0.953125 C 4.269531 -0.953125 4.65625 -1.046875 5 -1.234375 C 5.34375 -1.429688 5.609375 -1.703125 5.796875 -2.046875 C 5.992188 -2.390625 6.09375 -2.773438 6.09375 -3.203125 C 6.09375 -3.628906 5.992188 -4.015625 5.796875 -4.359375 C 5.609375 -4.703125 5.34375 -4.96875 5 -5.15625 C 4.65625 -5.351562 4.269531 -5.453125 3.84375 -5.453125 C 3.414062 -5.453125 3.03125 -5.351562 2.6875 -5.15625 C 2.351562 -4.96875 2.085938 -4.703125 1.890625 -4.359375 C 1.691406 -4.015625 1.59375 -3.628906 1.59375 -3.203125 C 1.59375 -2.773438 1.691406 -2.390625 1.890625 -2.046875 C 2.085938 -1.703125 2.351562 -1.429688 2.6875 -1.234375 C 3.03125 -1.046875 3.414062 -0.953125 3.84375 -0.953125 Z M 3.84375 -0.953125 "/></g></g></g><g clip-path="url(#90a90723c3)"><path fill="#ffffff" d="M 164.042969 247.988281 L 171.347656 254.734375 L 169.9375 259.3125 L 164.988281 260.613281 L 157.683594 253.859375 L 154.382812 256.914062 L 162.773438 268.097656 L 172.671875 266.355469 L 207.410156 300.550781 C 212.730469 305.507812 219.90625 298.074219 214.929688 293.84375 L 177.8125 261.390625 L 180.074219 252.136719 L 167.59375 244.699219 Z M 209.730469 295.914062 C 210.679688 295.039062 212.210938 295.039062 213.160156 295.914062 C 214.105469 296.789062 214.105469 298.207031 213.160156 299.082031 C 212.210938 299.953125 210.679688 299.953125 209.730469 299.082031 C 208.785156 298.207031 208.785156 296.789062 209.730469 295.914062 Z M 209.730469 295.914062 " fill-opacity="1" fill-rule="nonzero"/><path fill="#ffffff" d="M 164.042969 247.988281 L 171.347656 254.734375 L 169.9375 259.3125 L 164.988281 260.613281 L 157.683594 253.859375 L 154.382812 256.914062 L 162.773438 268.097656 L 172.671875 266.355469 L 207.410156 300.550781 C 212.730469 305.507812 219.90625 298.074219 214.929688 293.84375 L 177.8125 261.390625 L 180.074219 252.136719 L 167.59375 244.699219 Z M 209.730469 295.914062 C 210.679688 295.039062 212.210938 295.039062 213.160156 295.914062 C 214.105469 296.789062 214.105469 298.207031 213.160156 299.082031 C 212.210938 299.953125 210.679688 299.953125 209.730469 299.082031 C 208.785156 298.207031 208.785156 296.789062 209.730469 295.914062 Z M 209.730469 295.914062 " fill-opacity="1" fill-rule="nonzero"/><path fill="#ffffff" d="M 164.042969 247.988281 L 171.347656 254.734375 L 169.9375 259.3125 L 164.988281 260.613281 L 157.683594 253.859375 L 154.382812 256.914062 L 162.773438 268.097656 L 172.671875 266.355469 L 207.410156 300.550781 C 212.730469 305.507812 219.90625 298.074219 214.929688 293.84375 L 177.8125 261.390625 L 180.074219 252.136719 L 167.59375 244.699219 Z M 209.730469 295.914062 C 210.679688 295.039062 212.210938 295.039062 213.160156 295.914062 C 214.105469 296.789062 214.105469 298.207031 213.160156 299.082031 C 212.210938 299.953125 210.679688 299.953125 209.730469 299.082031 C 208.785156 298.207031 208.785156 296.789062 209.730469 295.914062 Z M 209.730469 295.914062 " fill-opacity="1" fill-rule="nonzero"/></g><g clip-path="url(#782210c2dd)"><g clip-path="url(#9264839829)"><path fill="#ffffff" d="M 164.042969 247.988281 L 171.347656 254.734375 L 169.9375 259.3125 L 164.988281 260.613281 L 157.683594 253.859375 L 154.382812 256.914062 L 162.773438 268.097656 L 172.671875 266.355469 L 207.410156 300.550781 C 212.730469 305.507812 219.90625 298.074219 214.929688 293.84375 L 177.8125 261.390625 L 180.074219 252.136719 L 167.59375 244.699219 Z M 209.730469 295.914062 C 210.679688 295.039062 212.210938 295.039062 213.160156 295.914062 C 214.105469 296.789062 214.105469 298.207031 213.160156 299.082031 C 212.210938 299.953125 210.679688 299.953125 209.730469 299.082031 C 208.785156 298.207031 208.785156 296.789062 209.730469 295.914062 Z M 209.730469 295.914062 " fill-opacity="1" fill-rule="nonzero"/></g></g><g clip-path="url(#75f90f8bf9)"><path fill="#ffffff" d="M 165.121094 247.050781 L 172.699219 254.023438 L 170.824219 260.113281 L 164.652344 261.816406 L 157.003906 254.65625 L 154.335938 257.023438 L 162.339844 267.414062 L 172.992188 265.257812 L 208.222656 299.839844 C 212.449219 304.164062 219.609375 298.449219 214.5 293.792969 L 176.792969 260.914062 L 178.96875 251.964844 L 167.71875 244.652344 Z M 210.195312 295.667969 C 211.136719 294.796875 212.804688 294.625 213.746094 295.511719 C 214.703125 296.382812 215.46875 297.925781 214.113281 299.597656 C 212.984375 300.640625 211.179688 300.597656 210.054688 299.472656 C 209.105469 298.597656 209.234375 296.554688 210.195312 295.667969 Z M 210.195312 295.667969 " fill-opacity="1" fill-rule="nonzero"/></g><path fill="#ffffff" d="M 165.042969 247.0625 L 178.273438 259.386719 L 180.089844 252.15625 L 167.632812 244.652344 Z M 165.042969 247.0625 " fill-opacity="1" fill-rule="nonzero"/><path fill="#ffffff" d="M 191.277344 273.167969 L 193.886719 275.398438 C 194.101562 277.648438 193.476562 278.328125 189.472656 281.464844 L 184.628906 276.660156 L 191.273438 273.167969 Z M 191.277344 273.167969 " fill-opacity="1" fill-rule="nonzero"/><path fill="#ffffff" d="M 182.855469 245.277344 L 183.285156 245.363281 C 188.269531 243.828125 199.453125 249.863281 196.960938 255.242188 C 196.328125 256.085938 196.4375 257.585938 197.195312 258.53125 L 183.210938 271.464844 C 182.429688 270.738281 180.6875 270.753906 179.886719 271.464844 L 156.761719 291.984375 C 154.652344 293.855469 156.308594 295.445312 157.199219 296.28125 L 161.347656 300.117188 C 162.253906 300.953125 164.652344 302.078125 166.351562 300.410156 L 188.179688 279.144531 C 188.9375 278.40625 188.945312 276.816406 188.179688 276.085938 C 188.179688 276.085938 188.183594 276.074219 188.179688 276.074219 L 202.21875 263.101562 C 203.703125 264.335938 205.101562 264.441406 206.429688 264.105469 C 208.996094 263.457031 210.425781 265.777344 211.957031 267.472656 L 211.265625 268.101562 C 210.238281 269.0625 210.335938 270.675781 211.484375 271.738281 C 212.636719 272.800781 214.386719 272.890625 215.414062 271.941406 L 220.003906 267.707031 C 221.027344 266.746094 220.933594 265.132812 219.777344 264.074219 C 218.738281 263.109375 217.234375 262.984375 216.1875 263.671875 C 213.039062 260.410156 214.691406 259.921875 210.542969 255.675781 L 202.769531 248.332031 C 197.175781 243.257812 189.902344 243.261719 182.855469 245.277344 Z M 182.855469 245.277344 " fill-opacity="1" fill-rule="nonzero"/><path fill="#ffffff" d="M 182.855469 245.277344 L 183.285156 245.363281 C 188.269531 243.828125 199.453125 249.863281 196.960938 255.242188 C 196.328125 256.085938 196.4375 257.585938 197.195312 258.53125 L 183.210938 271.464844 C 182.429688 270.738281 180.6875 270.753906 179.886719 271.464844 L 156.761719 291.984375 C 154.652344 293.855469 156.308594 295.445312 157.199219 296.28125 L 161.347656 300.117188 C 162.253906 300.953125 164.652344 302.078125 166.351562 300.410156 L 188.179688 279.144531 C 188.9375 278.40625 188.945312 276.816406 188.179688 276.085938 C 188.179688 276.085938 188.183594 276.074219 188.179688 276.074219 L 202.21875 263.101562 C 203.703125 264.335938 205.101562 264.441406 206.429688 264.105469 C 208.996094 263.457031 210.425781 265.777344 211.957031 267.472656 L 211.265625 268.101562 C 210.238281 269.0625 210.335938 270.675781 211.484375 271.738281 C 212.636719 272.800781 214.386719 272.890625 215.414062 271.941406 L 220.003906 267.707031 C 221.027344 266.746094 220.933594 265.132812 219.777344 264.074219 C 218.738281 263.109375 217.234375 262.984375 216.1875 263.671875 C 213.039062 260.410156 214.691406 259.921875 210.542969 255.675781 L 202.769531 248.332031 C 197.175781 243.257812 189.902344 243.261719 182.855469 245.277344 Z M 182.855469 245.277344 " fill-opacity="1" fill-rule="nonzero"/><path fill="#ffffff" d="M 198.144531 257.652344 L 181.542969 273 L 186.519531 277.601562 L 203.121094 262.261719 Z M 198.144531 257.652344 " fill-opacity="1" fill-rule="nonzero"/><path fill="#ffffff" d="M 201.53125 260.785156 L 184.929688 276.128906 L 186.519531 277.601562 L 203.121094 262.261719 Z M 201.53125 260.785156 " fill-opacity="1" fill-rule="nonzero"/><path fill="#ffffff" d="M 200.136719 258.324219 L 183.605469 273.609375 L 185.742188 275.585938 L 201.851562 259.910156 Z M 200.136719 258.324219 " fill-opacity="1" fill-rule="nonzero"/><path fill="#ffffff" d="M 182.859375 245.277344 L 183.285156 245.363281 C 188.269531 243.832031 199.453125 249.863281 196.960938 255.242188 C 196.328125 256.085938 196.4375 257.585938 197.195312 258.53125 L 202.21875 263.101562 C 203.703125 264.335938 205.097656 264.441406 206.429688 264.105469 C 208.992188 263.464844 210.421875 265.773438 211.957031 267.472656 L 211.265625 268.105469 C 210.238281 269.0625 210.335938 270.679688 211.484375 271.742188 C 212.636719 272.804688 214.386719 272.894531 215.414062 271.945312 L 220.003906 267.707031 C 221.027344 266.75 220.933594 265.132812 219.777344 264.074219 C 218.738281 263.113281 217.234375 262.988281 216.1875 263.675781 C 213.039062 260.414062 214.691406 259.921875 210.542969 255.675781 L 202.769531 248.332031 C 197.175781 243.257812 189.902344 243.261719 182.859375 245.277344 Z M 182.859375 245.277344 " fill-opacity="1" fill-rule="nonzero"/><path fill="#ffffff" d="M 216.183594 263.671875 C 213.039062 260.410156 214.691406 259.921875 210.542969 255.671875 L 202.769531 248.332031 C 199.5625 245.421875 195.800781 244.183594 191.855469 244.027344 L 215.039062 265.667969 L 216.714844 264.246094 Z M 216.183594 263.671875 " fill-opacity="1" fill-rule="nonzero"/><path fill="#ffffff" d="M 197.316406 253.617188 C 197.34375 254.136719 197.214844 254.660156 196.949219 255.242188 C 196.328125 256.085938 196.4375 257.585938 197.195312 258.53125 L 202.21875 263.101562 C 203.703125 264.335938 205.097656 264.441406 206.429688 264.105469 C 207.039062 263.933594 207.589844 263.964844 208.109375 264.105469 C 209.6875 264.507812 197.308594 253.398438 197.316406 253.566406 Z M 197.316406 253.617188 " fill-opacity="1" fill-rule="nonzero"/><path fill="#ffffff" d="M 183.210938 271.464844 C 182.429688 270.738281 180.6875 270.753906 179.886719 271.464844 L 156.761719 291.984375 C 154.652344 293.855469 156.300781 295.445312 157.199219 296.285156 L 161.347656 300.121094 C 162.257812 300.953125 164.652344 302.078125 166.355469 300.410156 L 188.179688 279.144531 C 188.941406 278.40625 188.945312 276.816406 188.179688 276.085938 C 188.179688 276.085938 188.183594 276.074219 188.179688 276.074219 L 183.214844 271.464844 Z M 183.210938 271.464844 " fill-opacity="1" fill-rule="nonzero"/><path fill="#ffffff" d="M 157.195312 296.277344 L 161.34375 300.121094 C 162.25 300.953125 164.570312 302.144531 166.273438 300.488281 L 188.183594 279.140625 C 188.945312 278.394531 188.964844 276.792969 188.183594 276.074219 L 183.207031 271.46875 L 157.195312 296.28125 Z M 157.195312 296.277344 " fill-opacity="1" fill-rule="nonzero"/><path fill="#ffffff" d="M 180.265625 273.261719 L 158.347656 293.085938 C 157.4375 293.898438 157.746094 295.039062 158.40625 295.632812 L 160.734375 297.703125 L 184.613281 274.980469 L 182.40625 273.0625 C 181.929688 272.648438 180.828125 272.765625 180.261719 273.261719 Z M 180.265625 273.261719 " fill-opacity="1" fill-rule="nonzero"/><g clip-path="url(#005bb6ecab)"><g clip-path="url(#087c2286c6)"><path fill="#ffffff" d="M 182.855469 245.277344 L 183.285156 245.363281 C 188.269531 243.828125 199.453125 249.863281 196.960938 255.242188 C 196.328125 256.085938 196.4375 257.585938 197.195312 258.53125 L 183.210938 271.464844 C 182.429688 270.738281 180.6875 270.753906 179.886719 271.464844 L 156.761719 291.984375 C 154.652344 293.855469 156.308594 295.445312 157.199219 296.28125 L 161.347656 300.117188 C 162.253906 300.953125 164.652344 302.078125 166.351562 300.410156 L 188.179688 279.144531 C 188.9375 278.40625 188.945312 276.816406 188.179688 276.085938 C 188.179688 276.085938 188.183594 276.074219 188.179688 276.074219 L 202.21875 263.101562 C 203.703125 264.335938 205.101562 264.441406 206.429688 264.105469 C 208.996094 263.457031 210.425781 265.777344 211.957031 267.472656 L 211.265625 268.101562 C 210.238281 269.0625 210.335938 270.675781 211.484375 271.738281 C 212.636719 272.800781 214.386719 272.890625 215.414062 271.941406 L 220.003906 267.707031 C 221.027344 266.746094 220.933594 265.132812 219.777344 264.074219 C 218.738281 263.109375 217.234375 262.984375 216.1875 263.671875 C 213.039062 260.410156 214.691406 259.921875 210.542969 255.675781 L 202.769531 248.332031 C 197.175781 243.257812 189.902344 243.261719 182.855469 245.277344 Z M 182.855469 245.277344 " fill-opacity="1" fill-rule="nonzero"/></g></g><path fill="#ffffff" d="M 219.296875 264.695312 C 220.148438 265.445312 220.3125 266.488281 219.136719 267.488281 L 216.957031 269.378906 C 215.785156 270.394531 212.71875 267.6875 213.886719 266.675781 L 216.074219 264.785156 C 217.238281 263.769531 218.445312 263.945312 219.296875 264.695312 Z M 219.296875 264.695312 " fill-opacity="1" fill-rule="nonzero"/></svg>