<svg xmlns="http://www.w3.org/2000/svg" xmlns:xlink="http://www.w3.org/1999/xlink" id="Warstwa_1" x="0px" y="0px" width="600px" height="276px" viewBox="0 0 600 276" xml:space="preserve">
<g>
	<path d="M189.88,106.937v14.632h-10.089V79.855h16.343c4.956,0,8.732,1.229,11.328,3.688c2.596,2.459,3.894,5.772,3.894,9.941   c0,2.596-0.581,4.907-1.74,6.933c-1.161,2.026-2.882,3.619-5.163,4.779c-2.282,1.16-5.055,1.74-8.319,1.74H189.88z M201.09,93.484   c0-3.658-2.026-5.487-6.077-5.487h-5.133v10.856h5.133C199.064,98.854,201.09,97.064,201.09,93.484z"></path>
	<path d="M223.923,88.646l7.906,20.178l7.375-20.178h11.151l-20.532,48.616h-11.092l7.729-16.934l-13.806-31.683H223.923z"></path>
	<path d="M272.361,112.896v8.673h-4.543c-3.855,0-6.854-0.953-8.998-2.861c-2.144-1.907-3.215-5.064-3.215-9.47V97.143h-4.425   v-8.496h4.425v-8.083h10.089v8.083h6.608v8.496h-6.608v12.271c0,1.298,0.266,2.203,0.796,2.714   c0.531,0.512,1.425,0.768,2.685,0.768H272.361z"></path>
	<path d="M297.022,89.944c1.809,1.142,3.146,2.694,4.013,4.661v-5.959h10.029v32.922h-10.029v-5.959   c-0.866,1.967-2.204,3.521-4.013,4.661c-1.81,1.142-3.973,1.711-6.49,1.711c-2.714,0-5.143-0.679-7.286-2.035   c-2.145-1.357-3.835-3.313-5.074-5.871c-1.239-2.557-1.858-5.546-1.858-8.968c0-3.461,0.62-6.461,1.858-8.998   c1.239-2.536,2.93-4.483,5.074-5.841c2.143-1.356,4.572-2.035,7.286-2.035C293.049,88.233,295.213,88.804,297.022,89.944z    M288.556,99.207c-1.318,1.416-1.977,3.384-1.977,5.9c0,2.518,0.658,4.484,1.977,5.9c1.317,1.416,3.058,2.124,5.221,2.124   c2.124,0,3.865-0.728,5.222-2.184c1.357-1.455,2.036-3.401,2.036-5.841c0-2.479-0.679-4.435-2.036-5.87s-3.098-2.154-5.222-2.154   C291.614,97.083,289.874,97.791,288.556,99.207z"></path>
	<path d="M347.909,92.068c2.222,2.518,3.334,5.979,3.334,10.384v19.116h-10.089v-17.936c0-2.203-0.581-3.924-1.74-5.163   c-1.161-1.239-2.705-1.858-4.633-1.858c-2.045,0-3.668,0.649-4.867,1.947s-1.799,3.147-1.799,5.546v17.464h-10.09V88.646h10.09   v6.018c0.943-1.966,2.35-3.52,4.219-4.661c1.867-1.14,4.061-1.711,6.578-1.711C342.688,88.292,345.688,89.552,347.909,92.068z"></path>
	<path d="M358.617,75.578c1.102-1.003,2.557-1.505,4.367-1.505c1.809,0,3.264,0.502,4.365,1.505   c1.101,1.003,1.652,2.271,1.652,3.806c0,1.495-0.552,2.743-1.652,3.746c-1.102,1.003-2.557,1.505-4.365,1.505   c-1.811,0-3.266-0.502-4.367-1.505s-1.651-2.251-1.651-3.746C356.966,77.85,357.516,76.581,358.617,75.578z M367.998,88.646v32.922   H357.91V88.646H367.998z"></path>
	<path d="M393.958,89.944c1.809,1.142,3.146,2.694,4.013,4.661v-5.959H408v32.922h-10.029v-5.959   c-0.866,1.967-2.204,3.521-4.013,4.661c-1.81,1.142-3.974,1.711-6.49,1.711c-2.714,0-5.144-0.679-7.286-2.035   c-2.145-1.357-3.835-3.313-5.074-5.871c-1.238-2.557-1.858-5.546-1.858-8.968c0-3.461,0.62-6.461,1.858-8.998   c1.239-2.536,2.93-4.483,5.074-5.841c2.143-1.356,4.572-2.035,7.286-2.035C389.984,88.233,392.148,88.804,393.958,89.944z    M385.492,99.207c-1.318,1.416-1.977,3.384-1.977,5.9c0,2.518,0.658,4.484,1.977,5.9c1.316,1.416,3.057,2.124,5.221,2.124   c2.124,0,3.865-0.728,5.222-2.184c1.356-1.455,2.036-3.401,2.036-5.841c0-2.479-0.68-4.435-2.036-5.87s-3.098-2.154-5.222-2.154   C388.549,97.083,386.809,97.791,385.492,99.207z"></path>
</g>
<g>
	<path d="M180.618,133.787c0.786-0.746,1.829-1.121,3.127-1.121s2.35,0.375,3.156,1.121c0.806,0.748,1.209,1.691,1.209,2.832   c0,1.142-0.404,2.065-1.209,2.773c-0.807,0.708-1.858,1.062-3.156,1.062s-2.341-0.354-3.127-1.062   c-0.788-0.708-1.18-1.632-1.18-2.773C179.438,135.479,179.83,134.535,180.618,133.787z M187.107,146.06v32.509h-6.726V146.06   H187.107z"></path>
	<path d="M232.419,147.652c2.517,1.338,4.484,3.266,5.9,5.782c1.416,2.518,2.124,5.468,2.124,8.85c0,3.422-0.708,6.393-2.124,8.909   c-1.416,2.518-3.383,4.445-5.9,5.782c-2.518,1.338-5.35,2.006-8.496,2.006c-3.147,0-5.969-0.668-8.466-2.006   c-2.499-1.337-4.465-3.274-5.9-5.812c-1.436-2.537-2.153-5.496-2.153-8.88c0-3.382,0.717-6.332,2.153-8.85   c1.436-2.517,3.402-4.444,5.9-5.782c2.497-1.337,5.319-2.006,8.466-2.006C227.069,145.646,229.901,146.315,232.419,147.652z    M219.144,152.667c-1.456,0.788-2.625,1.997-3.511,3.629c-0.885,1.633-1.328,3.629-1.328,5.988c0,2.399,0.443,4.406,1.328,6.019   c0.885,1.613,2.055,2.813,3.511,3.599c1.455,0.787,3.047,1.18,4.779,1.18c1.73,0,3.323-0.393,4.779-1.18   c1.455-0.786,2.625-1.985,3.511-3.599c0.885-1.612,1.328-3.619,1.328-6.019c0-2.359-0.443-4.355-1.328-5.988   c-0.885-1.632-2.056-2.841-3.511-3.629c-1.456-0.786-3.048-1.18-4.779-1.18C222.191,151.487,220.599,151.881,219.144,152.667z"></path>
	<path d="M267.524,147.829c2.084,1.456,3.54,3.384,4.366,5.782v-18.703h6.785v43.66h-6.785v-7.552   c-0.826,2.399-2.281,4.327-4.366,5.782c-2.085,1.455-4.602,2.183-7.552,2.183c-2.832,0-5.36-0.668-7.582-2.006   c-2.223-1.337-3.963-3.265-5.221-5.782c-1.259-2.517-1.888-5.487-1.888-8.909c0-3.382,0.629-6.332,1.888-8.85   c1.258-2.517,2.999-4.444,5.221-5.782c2.222-1.337,4.75-2.006,7.582-2.006C262.922,145.646,265.438,146.375,267.524,147.829z    M254.868,154.408c-1.79,1.908-2.685,4.533-2.685,7.876c0,3.344,0.895,5.97,2.685,7.877c1.79,1.908,4.179,2.861,7.168,2.861   c1.888,0,3.579-0.442,5.074-1.327c1.494-0.886,2.674-2.134,3.54-3.747c0.865-1.612,1.298-3.5,1.298-5.664   c0-2.124-0.433-4.002-1.298-5.635c-0.866-1.631-2.046-2.891-3.54-3.775c-1.495-0.885-3.186-1.328-5.074-1.328   C259.047,151.546,256.658,152.501,254.868,154.408z"></path>
	<path d="M312.982,147.652c2.223,1.338,3.963,3.266,5.223,5.782c1.258,2.518,1.887,5.468,1.887,8.85   c0,3.422-0.629,6.393-1.887,8.909c-1.26,2.518-3,4.445-5.223,5.782c-2.223,1.338-4.749,2.006-7.581,2.006   c-2.95,0-5.467-0.728-7.552-2.183c-2.085-1.455-3.54-3.383-4.366-5.782v23.01h-6.726V146.06h6.726v7.552   c0.826-2.398,2.281-4.326,4.366-5.782c2.084-1.454,4.602-2.183,7.552-2.183C308.233,145.646,310.76,146.315,312.982,147.652z    M298.263,152.874c-1.496,0.885-2.675,2.145-3.54,3.775c-0.866,1.633-1.298,3.511-1.298,5.635c0,2.164,0.433,4.052,1.298,5.664   c0.865,1.613,2.044,2.861,3.54,3.747c1.494,0.885,3.187,1.327,5.073,1.327c2.989,0,5.389-0.953,7.199-2.861   c1.809-1.907,2.713-4.533,2.713-7.877c0-3.304-0.904-5.919-2.713-7.847c-1.811-1.927-4.21-2.892-7.199-2.892   C301.449,151.546,299.757,151.989,298.263,152.874z"></path>
	<path d="M349.945,147.652c2.518,1.338,4.484,3.266,5.9,5.782c1.416,2.518,2.124,5.468,2.124,8.85c0,3.422-0.708,6.393-2.124,8.909   c-1.416,2.518-3.383,4.445-5.9,5.782c-2.518,1.338-5.35,2.006-8.496,2.006s-5.969-0.668-8.466-2.006   c-2.499-1.337-4.465-3.274-5.9-5.812c-1.437-2.537-2.153-5.496-2.153-8.88c0-3.382,0.717-6.332,2.153-8.85   c1.436-2.517,3.401-4.444,5.9-5.782c2.497-1.337,5.319-2.006,8.466-2.006S347.428,146.315,349.945,147.652z M336.671,152.667   c-1.456,0.788-2.626,1.997-3.511,3.629c-0.885,1.633-1.328,3.629-1.328,5.988c0,2.399,0.443,4.406,1.328,6.019   c0.885,1.613,2.055,2.813,3.511,3.599c1.454,0.787,3.048,1.18,4.778,1.18s3.324-0.393,4.779-1.18   c1.455-0.786,2.625-1.985,3.511-3.599c0.885-1.612,1.327-3.619,1.327-6.019c0-2.359-0.442-4.355-1.327-5.988   c-0.886-1.632-2.056-2.841-3.511-3.629c-1.455-0.786-3.049-1.18-4.779-1.18S338.125,151.881,336.671,152.667z"></path>
	<path d="M410.008,146.06l-9.027,32.509h-7.434l-8.024-25.134l-8.142,25.134h-7.375l-9.027-32.509h6.785l6.195,26.313l8.142-26.313   h7.08l8.26,26.313l6.195-26.313H410.008z"></path>
	<path d="M414.846,133.787c0.785-0.746,1.828-1.121,3.127-1.121c1.297,0,2.35,0.375,3.156,1.121   c0.805,0.748,1.209,1.691,1.209,2.832c0,1.142-0.404,2.065-1.209,2.773c-0.807,0.708-1.859,1.062-3.156,1.062   c-1.299,0-2.342-0.354-3.127-1.062c-0.788-0.708-1.181-1.632-1.181-2.773C413.665,135.479,414.058,134.535,414.846,133.787z    M421.335,146.06v32.509h-6.726V146.06H421.335z"></path>
	<path d="M459.449,163.642h-25.017c0.118,3.344,1.042,5.821,2.772,7.434c1.73,1.613,3.875,2.419,6.432,2.419   c2.242,0,4.139-0.569,5.693-1.711c1.554-1.141,2.508-2.655,2.861-4.543h7.198c-0.433,2.282-1.337,4.307-2.714,6.077   c-1.377,1.77-3.166,3.156-5.369,4.159s-4.66,1.505-7.375,1.505c-3.146,0-5.93-0.668-8.348-2.006   c-2.42-1.337-4.318-3.265-5.694-5.782c-1.377-2.517-2.065-5.487-2.065-8.909c0-3.382,0.688-6.332,2.065-8.85   c1.376-2.517,3.274-4.444,5.694-5.782c2.418-1.337,5.201-2.006,8.348-2.006c3.186,0,5.969,0.659,8.349,1.977   c2.38,1.318,4.208,3.127,5.487,5.428c1.277,2.301,1.917,4.867,1.917,7.699C459.685,161.852,459.605,162.815,459.449,163.642z    M451.809,155.233c-0.807-1.435-1.908-2.497-3.305-3.186c-1.396-0.688-2.92-1.032-4.572-1.032c-2.636,0-4.838,0.807-6.607,2.419   c-1.771,1.613-2.734,3.992-2.892,7.139H452.9C452.979,158.449,452.613,156.67,451.809,155.233z"></path>
	<path d="M486.766,147.829c2.084,1.456,3.54,3.384,4.366,5.782v-18.703h6.785v43.66h-6.785v-7.552   c-0.826,2.399-2.282,4.327-4.366,5.782c-2.085,1.455-4.603,2.183-7.552,2.183c-2.832,0-5.36-0.668-7.582-2.006   c-2.223-1.337-3.963-3.265-5.222-5.782c-1.259-2.517-1.888-5.487-1.888-8.909c0-3.382,0.629-6.332,1.888-8.85   c1.259-2.517,2.999-4.444,5.222-5.782c2.222-1.337,4.75-2.006,7.582-2.006C482.163,145.646,484.681,146.375,486.766,147.829z    M474.109,154.408c-1.789,1.908-2.684,4.533-2.684,7.876c0,3.344,0.895,5.97,2.684,7.877c1.79,1.908,4.18,2.861,7.169,2.861   c1.889,0,3.579-0.442,5.074-1.327c1.494-0.886,2.675-2.134,3.54-3.747c0.864-1.612,1.298-3.5,1.298-5.664   c0-2.124-0.434-4.002-1.298-5.635c-0.865-1.631-2.046-2.891-3.54-3.775c-1.495-0.885-3.186-1.328-5.074-1.328   C478.289,151.546,475.899,152.501,474.109,154.408z"></path>
	<path d="M510.837,172.904h16.697v5.664h-24.132v-5.369l15.813-21.476h-15.399v-5.664h23.128v5.369L510.837,172.904z"></path>
	<path d="M533.315,133.787c0.787-0.746,1.829-1.121,3.127-1.121c1.299,0,2.351,0.375,3.157,1.121   c0.806,0.748,1.209,1.691,1.209,2.832c0,1.142-0.403,2.065-1.209,2.773c-0.807,0.708-1.858,1.062-3.157,1.062   c-1.298,0-2.34-0.354-3.127-1.062s-1.18-1.632-1.18-2.773C532.136,135.479,532.528,134.535,533.315,133.787z M539.806,146.06   v32.509h-6.726V146.06H539.806z"></path>
</g>
<g>
	
		<path fill="none" stroke="#CD1A32" stroke-width="4.5" stroke-linecap="round" stroke-linejoin="round" stroke-miterlimit="22.9256" d="   M75.066,142.355c-2.105-0.311-4.154-0.782-6.131-1.41c-4.192,4.236-6.506,5.738-14.089,9.879l-0.074-18.085   c-7.025-6.483-11.393-15.575-11.393-25.646c0-19.695,16.713-35.664,37.334-35.664c17.241,0,31.755,11.163,36.046,26.333"></path>
	
		<path fill="none" stroke="#CD1A32" stroke-width="4.5" stroke-linecap="round" stroke-linejoin="round" stroke-miterlimit="22.9256" d="   M71.817,90.877c4.008-7.411,15.271-7.887,15.271,2.328c0,6.968-8.653,6.545-8.653,14.996"></path>
	
		<path fill="none" stroke="#CD1A32" stroke-width="4.5" stroke-linecap="round" stroke-linejoin="round" stroke-miterlimit="22.9256" d="   M78.426,118.251c-0.041,0.376-0.063,0.774-0.063,1.193"></path>
	
		<path fill="none" stroke="#CD1A32" stroke-width="4.5" stroke-linecap="round" stroke-linejoin="round" stroke-miterlimit="22.9256" d="   M146.698,186.43l0.075-18.086c7.024-6.479,11.39-15.576,11.39-25.646c0-19.696-16.719-35.663-37.337-35.663   c-20.617,0-37.335,15.968-37.335,35.663c0,19.699,16.716,35.666,37.335,35.666c4.118,0,8.077-0.637,11.778-1.812   C136.801,180.777,139.112,182.284,146.698,186.43"></path>
	
		<polyline fill="none" stroke="#CD1A32" stroke-width="4.5" stroke-linecap="round" stroke-linejoin="round" stroke-miterlimit="22.9256" points="   108.125,146.398 116.628,157.492 133.993,135.022  "></polyline>
	
		<path fill="none" stroke="#CD1A32" stroke-width="4.5" stroke-linecap="round" stroke-linejoin="round" stroke-miterlimit="22.9256" d="   M121.752,115.321c15.638,0,28.319,12.111,28.319,27.048"></path>
</g>
</svg>